<svg xmlns="http://www.w3.org/2000/svg" width="922" height="841"><defs><style>@import url('https://fonts.googleapis.com/css2?family=Roboto+Mono&amp;display=swap')</style><style>text,text&gt;tspan{font-family:'Roboto Mono';font-size:16px} rect{stroke:black} line,path{fill:none;stroke:black}</style><marker id="arrowMarker" orient="auto" refX="6" refY="5" markerHeight="10" markerWidth="5"><path style="fill:black;stroke:black" d="M 0 0 L 5 5 L 0 10 Z"></path></marker><marker id="inheritMarker" orient="auto" refX="16" refY="7.5" markerHeight="15" markerWidth="15"><path style="fill:white;stroke:black" d="M 0 0 L 15 7.5 L 0 15 Z"></path></marker><marker id="aggregationMarker" orient="auto" refX="21" refY="7.5" markerHeight="15" markerWidth="20"><path style="fill:white;stroke:black" d="M 0 7.5 L 10 0 L 20 7.5 L 10 15 Z"></path></marker><marker id="compositionMarker" orient="auto" refX="21" refY="7.5" markerHeight="15" markerWidth="20"><path style="fill:black;stroke:black" d="M 0 7.5 L 10 0 L 20 7.5 L 10 15 Z"></path></marker></defs><g transform="translate(43,5)"><rect height="58" width="76" style="fill:white"></rect><rect height="21" width="76.5" style="fill:lightgrey"></rect><text x="5" y="16">logUser</text><text><tspan x="2.5" y="37" style="text-decoration:underline">id</tspan><tspan x="2.5" y="53">tm_user</tspan></text></g><g transform="translate(38,205)"><rect height="90" width="86" style="fill:white"></rect><rect height="21" width="86" style="fill:lightgrey"></rect><text x="19.25" y="16">users</text><text><tspan x="2.5" y="37" style="text-decoration:underline">id</tspan><tspan x="2.5" y="53">email</tspan><tspan x="2.5" y="69">password</tspan><tspan x="2.5" y="85">token</tspan></text></g><g transform="translate(34,453)"><rect height="74" width="95" style="fill:white"></rect><rect height="21" width="95.5" style="fill:lightgrey"></rect><text x="24" y="16">LogRq</text><text><tspan x="2.5" y="37" style="text-decoration:underline">id</tspan><tspan x="2.5" y="53">LastRq</tspan><tspan x="2.5" y="69">tm_LastRq</tspan></text></g><g transform="translate(382,437)"><rect height="106" width="190" style="fill:white"></rect><rect height="21" width="190.5" style="fill:lightgrey"></rect><text x="5" y="16">CrendentialsTracker</text><text><tspan x="2.5" y="37" style="text-decoration:underline">id_iot</tspan><tspan x="2.5" y="53">trackerName</tspan><tspan x="2.5" y="69">MQTTpswd</tspan><tspan x="2.5" y="85">topicRX</tspan><tspan x="2.5" y="101">topicTX</tspan></text></g><g transform="translate(796,445)"><rect height="90" width="76" style="fill:white"></rect><rect height="21" width="76.5" style="fill:lightgrey"></rect><text x="5" y="16">Pos_IOT</text><text><tspan x="2.5" y="37" style="text-decoration:underline">id</tspan><tspan x="2.5" y="53">posx</tspan><tspan x="2.5" y="69">posy</tspan><tspan x="2.5" y="85">tm_pos</tspan></text></g><g transform="translate(410,685)"><rect height="106" width="133" style="fill:white"></rect><rect height="21" width="133.5" style="fill:lightgrey"></rect><text x="19.25" y="16">Status_IOT</text><text><tspan x="2.5" y="37" style="text-decoration:underline">status_charge</tspan><tspan x="2.5" y="53">status_bat</tspan><tspan x="2.5" y="69">status_alarm</tspan><tspan x="2.5" y="85">status_On</tspan><tspan x="2.5" y="101">tm_status</tspan></text></g><g transform="translate(5,113)"><rect height="42" width="153" rx="20" ry="20" style="fill:lightgrey"></rect><line x1="0" x2="153" y1="21" y2="21"></line><text x="10" y="17">logUserRequest</text><text></text></g><g transform="translate(415,229)"><rect height="42" width="124.5" rx="20" ry="20" style="fill:lightgrey"></rect><line x1="0" x2="124.5" y1="21" y2="21"></line><text x="10" y="17">UserRequest</text><text></text></g><g transform="translate(5,345)"><rect height="42" width="153" rx="20" ry="20" style="fill:lightgrey"></rect><line x1="0" x2="153" y1="21" y2="21"></line><text x="10" y="17">UserLogRequest</text><text></text></g><g transform="translate(208,469)"><rect height="42" width="124.5" rx="20" ry="20" style="fill:lightgrey"></rect><line x1="0" x2="124.5" y1="21" y2="21"></line><text x="10" y="17">logResquest</text><text></text></g><g transform="translate(622,469)"><rect height="42" width="124.5" rx="20" ry="20" style="fill:lightgrey"></rect><line x1="0" x2="124.5" y1="21" y2="21"></line><text x="10" y="17">posResquest</text><text></text></g><g transform="translate(410,593)"><rect height="42" width="134" rx="20" ry="20" style="fill:lightgrey"></rect><line x1="0" x2="134" y1="21" y2="21"></line><text x="10" y="17">statResquest</text><text></text></g><g><line x1="81" x2="81" y1="155" y2="205"></line><text x="86" y="198">1,N</text></g><g><line x1="81" x2="81" y1="113" y2="63"></line><text x="86" y="84">1,1</text></g><g><line x1="415" x2="124" y1="250" y2="250"></line><text x="129" y="271">1,N</text></g><g><line x1="477" x2="477" y1="271" y2="437"></line><text x="482" y="430">1,1</text></g><g><line x1="81" x2="81" y1="345" y2="295"></line><text x="86" y="316">1,N</text></g><g><line x1="81" x2="81" y1="387" y2="453"></line><text x="86" y="446">1,1</text></g><g><line x1="208" x2="129" y1="490" y2="490"></line><text x="134" y="511">1,1</text></g><g><line x1="332" x2="382" y1="490" y2="490"></line><text x="346" y="511">N,1</text></g><g><line x1="746" x2="796" y1="490" y2="490"></line><text x="760" y="511">1,1</text></g><g><line x1="622" x2="572" y1="490" y2="490"></line><text x="577" y="511">1,N</text></g><g><line x1="477" x2="477" y1="593" y2="543"></line><text x="482" y="564">1,1</text></g><g><line x1="477" x2="476" y1="635" y2="685"></line><text x="481" y="678">1,1</text></g></svg>