<svg xmlns="http://www.w3.org/2000/svg" width="516" height="613"><defs><style>@import url('https://fonts.googleapis.com/css2?family=Roboto+Mono&amp;display=swap')</style><style>text,text&gt;tspan{font-family:'Roboto Mono';font-size:16px} rect{stroke:black} line,path{fill:none;stroke:black}</style><marker id="arrowMarker" orient="auto" refX="6" refY="5" markerHeight="10" markerWidth="5"><path style="fill:black;stroke:black" d="M 0 0 L 5 5 L 0 10 Z"></path></marker><marker id="inheritMarker" orient="auto" refX="16" refY="7.5" markerHeight="15" markerWidth="15"><path style="fill:white;stroke:black" d="M 0 0 L 15 7.5 L 0 15 Z"></path></marker><marker id="aggregationMarker" orient="auto" refX="21" refY="7.5" markerHeight="15" markerWidth="20"><path style="fill:white;stroke:black" d="M 0 7.5 L 10 0 L 20 7.5 L 10 15 Z"></path></marker><marker id="compositionMarker" orient="auto" refX="21" refY="7.5" markerHeight="15" markerWidth="20"><path style="fill:black;stroke:black" d="M 0 7.5 L 10 0 L 20 7.5 L 10 15 Z"></path></marker></defs><g transform="translate(9,5)"><rect height="74" width="86" style="fill:white"></rect><rect height="21" width="86" style="fill:lightgrey"></rect><text x="9.75" y="16">logUser</text><text><tspan x="2.5" y="37" style="text-decoration:underline">id</tspan><tspan x="2.5" y="53">tm_user</tspan><tspan x="2.5" y="69">id_users</tspan></text></g><g transform="translate(9,129)"><rect height="90" width="86" style="fill:white"></rect><rect height="21" width="86" style="fill:lightgrey"></rect><text x="19.25" y="16">users</text><text><tspan x="2.5" y="37" style="text-decoration:underline">id</tspan><tspan x="2.5" y="53">email</tspan><tspan x="2.5" y="69">password</tspan><tspan x="2.5" y="85">token</tspan></text></g><g transform="translate(5,277)"><rect height="106" width="95" style="fill:white"></rect><rect height="21" width="95.5" style="fill:lightgrey"></rect><text x="24" y="16">LogRq</text><text><tspan x="2.5" y="37" style="text-decoration:underline">id</tspan><tspan x="2.5" y="53">LastRq</tspan><tspan x="2.5" y="69">tm_LastRq</tspan><tspan x="2.5" y="85">id_iot</tspan><tspan x="2.5" y="101">id_users</tspan></text></g><g transform="translate(150,269)"><rect height="122" width="190" style="fill:white"></rect><rect height="21" width="190.5" style="fill:lightgrey"></rect><text x="5" y="16">CrendentialsTracker</text><text><tspan x="2.5" y="37" style="text-decoration:underline">id_iot</tspan><tspan x="2.5" y="53">trackerName</tspan><tspan x="2.5" y="69">MQTTpswd</tspan><tspan x="2.5" y="85">topicRX</tspan><tspan x="2.5" y="101">topicTX</tspan><tspan x="2.5" y="117">id_users</tspan></text></g><g transform="translate(390,277)"><rect height="106" width="76" style="fill:white"></rect><rect height="21" width="76.5" style="fill:lightgrey"></rect><text x="5" y="16">Pos_IOT</text><text><tspan x="2.5" y="37" style="text-decoration:underline">id</tspan><tspan x="2.5" y="53">posx</tspan><tspan x="2.5" y="69">posy</tspan><tspan x="2.5" y="85">tm_pos</tspan><tspan x="2.5" y="101">id_iot</tspan></text></g><g transform="translate(178,441)"><rect height="122" width="133" style="fill:white"></rect><rect height="21" width="133.5" style="fill:lightgrey"></rect><text x="19.25" y="16">Status_IOT</text><text><tspan x="2.5" y="37" style="text-decoration:underline">id</tspan><tspan x="2.5" y="53">status_charge</tspan><tspan x="2.5" y="69">status_bat</tspan><tspan x="2.5" y="85">status_alarm</tspan><tspan x="2.5" y="101">tm_status</tspan><tspan x="2.5" y="117">id_iot</tspan></text></g><g><path d="M 95 69 L 105 69 L 105 161 L 95 161" marker-end="url(#arrowMarker)"></path></g><g><path d="M 100 357 L 110 357 L 140 301 L 150 301" marker-end="url(#arrowMarker)"></path></g><g><path d="M 100 373 L 110 373 L 110 161 L 95 161" marker-end="url(#arrowMarker)"></path></g><g><path d="M 150 381 L 140 381 L 105 161 L 95 161" marker-end="url(#arrowMarker)"></path></g><g><path d="M 390 373 L 380 373 L 350 301 L 340 301" marker-end="url(#arrowMarker)"></path></g><g><path d="M 311 553 L 350 553 L 350 301 L 340 301" marker-end="url(#arrowMarker)"></path></g></svg>